<mxfile host="65bd71144e">
    <diagram id="cIIhtrV450jebO9foO8R" name="第1頁">
        <mxGraphModel dx="646" dy="450" grid="1" gridSize="10" guides="1" tooltips="1" connect="1" arrows="1" fold="1" page="1" pageScale="1" pageWidth="827" pageHeight="1169" math="0" shadow="0">
            <root>
                <mxCell id="0"/>
                <mxCell id="1" parent="0"/>
                <mxCell id="2" value="&lt;h2&gt;老師&lt;/h2&gt;" style="rounded=1;whiteSpace=wrap;html=1;" vertex="1" parent="1">
                    <mxGeometry x="130" y="290" width="120" height="60" as="geometry"/>
                </mxCell>
                <mxCell id="3" value="&lt;h2&gt;教導&lt;/h2&gt;" style="text;html=1;align=center;verticalAlign=middle;resizable=0;points=[];autosize=1;strokeColor=none;fillColor=none;rounded=1;" vertex="1" parent="1">
                    <mxGeometry x="260" y="270" width="60" height="60" as="geometry"/>
                </mxCell>
                <mxCell id="4" value="&lt;h2&gt;學生&lt;/h2&gt;" style="rounded=1;whiteSpace=wrap;html=1;" vertex="1" parent="1">
                    <mxGeometry x="360" y="290" width="120" height="60" as="geometry"/>
                </mxCell>
                <mxCell id="5" value="" style="endArrow=none;html=1;exitX=1;exitY=0.5;exitDx=0;exitDy=0;entryX=0;entryY=0.5;entryDx=0;entryDy=0;" edge="1" parent="1" source="2" target="4">
                    <mxGeometry width="50" height="50" relative="1" as="geometry">
                        <mxPoint x="390" y="430" as="sourcePoint"/>
                        <mxPoint x="440" y="380" as="targetPoint"/>
                    </mxGeometry>
                </mxCell>
                <mxCell id="8" value="" style="triangle;whiteSpace=wrap;html=1;rounded=1;" vertex="1" parent="1">
                    <mxGeometry x="335" y="290" width="15" height="20" as="geometry"/>
                </mxCell>
                <mxCell id="9" value="1" style="text;html=1;align=center;verticalAlign=middle;resizable=0;points=[];autosize=1;strokeColor=none;fillColor=none;rounded=1;" vertex="1" parent="1">
                    <mxGeometry x="250" y="320" width="30" height="30" as="geometry"/>
                </mxCell>
                <mxCell id="10" value="1.." style="text;html=1;align=center;verticalAlign=middle;resizable=0;points=[];autosize=1;strokeColor=none;fillColor=none;rounded=1;" vertex="1" parent="1">
                    <mxGeometry x="325" y="320" width="40" height="30" as="geometry"/>
                </mxCell>
                <mxCell id="12" value="" style="endArrow=classic;html=1;dashed=1;endFill=1;" edge="1" parent="1" target="3">
                    <mxGeometry width="50" height="50" relative="1" as="geometry">
                        <mxPoint x="200" y="400" as="sourcePoint"/>
                        <mxPoint x="250" y="230" as="targetPoint"/>
                        <Array as="points">
                            <mxPoint x="220" y="240"/>
                        </Array>
                    </mxGeometry>
                </mxCell>
                <mxCell id="13" value="關聯名稱&lt;br&gt;" style="text;html=1;align=center;verticalAlign=middle;resizable=0;points=[];autosize=1;strokeColor=none;fillColor=none;fontSize=20;fontFamily=Architects Daughter;sketch=1;hachureGap=4;jiggle=2;curveFitting=1;fontSource=https%3A%2F%2Ffonts.googleapis.com%2Fcss%3Ffamily%3DArchitects%2BDaughter;" vertex="1" parent="1">
                    <mxGeometry x="140" y="400" width="100" height="40" as="geometry"/>
                </mxCell>
                <mxCell id="14" value="" style="endArrow=classic;html=1;dashed=1;endFill=1;" edge="1" parent="1" target="10">
                    <mxGeometry width="50" height="50" relative="1" as="geometry">
                        <mxPoint x="370" y="430" as="sourcePoint"/>
                        <mxPoint x="290" y="380" as="targetPoint"/>
                        <Array as="points">
                            <mxPoint x="340" y="380"/>
                            <mxPoint x="320" y="380"/>
                        </Array>
                    </mxGeometry>
                </mxCell>
                <mxCell id="15" value="多重性" style="text;html=1;align=center;verticalAlign=middle;resizable=0;points=[];autosize=1;strokeColor=none;fillColor=none;fontSize=20;fontFamily=Architects Daughter;sketch=1;hachureGap=4;jiggle=2;curveFitting=1;fontSource=https%3A%2F%2Ffonts.googleapis.com%2Fcss%3Ffamily%3DArchitects%2BDaughter;" vertex="1" parent="1">
                    <mxGeometry x="360" y="410" width="80" height="40" as="geometry"/>
                </mxCell>
                <mxCell id="16" value="" style="endArrow=classic;html=1;dashed=1;endFill=1;entryX=0.848;entryY=0.257;entryDx=0;entryDy=0;entryPerimeter=0;" edge="1" parent="1" target="8">
                    <mxGeometry width="50" height="50" relative="1" as="geometry">
                        <mxPoint x="430" y="200" as="sourcePoint"/>
                        <mxPoint x="346.66666666666674" y="360" as="targetPoint"/>
                        <Array as="points">
                            <mxPoint x="390" y="240"/>
                            <mxPoint x="370" y="260"/>
                        </Array>
                    </mxGeometry>
                </mxCell>
                <mxCell id="17" value="方向箭號" style="text;html=1;align=center;verticalAlign=middle;resizable=0;points=[];autosize=1;strokeColor=none;fillColor=none;fontSize=20;fontFamily=Architects Daughter;sketch=1;hachureGap=4;jiggle=2;curveFitting=1;fontSource=https%3A%2F%2Ffonts.googleapis.com%2Fcss%3Ffamily%3DArchitects%2BDaughter;" vertex="1" parent="1">
                    <mxGeometry x="430" y="180" width="100" height="40" as="geometry"/>
                </mxCell>
            </root>
        </mxGraphModel>
    </diagram>
</mxfile>